# xmcd CD database file generated by Grip 2.95
# 
# Track frame offsets:
#       6990
#       21392
#       38675
#       53595
#       69105
#       83190
#       99752
#       116832
#       131315
#       149172
#       164845
# 
# Disc length: 2364 seconds
# 
# Revision: 3
# Processed by: cddbd v1.4b41PL2 Copyright (c) Steve Scherf et al.
# Submitted via: Grip 2.95
# 
DISCID=9c08df0b
DTITLE=Diamond Rio - IV
DYEAR=1900
DGENRE=
TTITLE0=Holdin'
TTITLE1=Walkin' away
TTITLE2=That's what I get for loving you
TTITLE3=She misses him on sunday the most
TTITLE4=She sure did like to run
TTITLE5=It's all in you head
TTITLE6=Who am I
TTITLE7=Love takes you there
TTITLE8=Is that askin' too much
TTITLE9=Just another heart
TTITLE10=Big (instrumental)
EXTD=
EXTT0=
EXTT1=
EXTT2=
EXTT3=
EXTT4=
EXTT5=
EXTT6=
EXTT7=
EXTT8=
EXTT9=
EXTT10=
PLAYORDER=
